<svg width="131" height="39" viewBox="0 0 131 39" fill="none" xmlns="http://www.w3.org/2000/svg">
<g clip-path="url(#clip0_1741_11348)">
<path d="M112.537 25.1113V17.6332C112.537 16.484 112.79 15.4785 113.298 14.6166C113.821 13.7547 114.54 13.0872 115.452 12.614C116.365 12.1239 117.404 11.8789 118.57 11.8789C119.753 11.8789 120.792 12.1239 121.688 12.614C122.601 13.0872 123.31 13.7547 123.817 14.6166C124.341 15.4785 124.603 16.484 124.603 17.6332V25.1113H122.271V17.6586C122.271 16.8812 122.094 16.2136 121.739 15.6559C121.401 15.0814 120.944 14.642 120.37 14.3378C119.812 14.0336 119.212 13.8815 118.57 13.8815C117.928 13.8815 117.32 14.0336 116.745 14.3378C116.187 14.642 115.731 15.0814 115.376 15.6559C115.038 16.2136 114.869 16.8812 114.869 17.6586V25.1113H112.537Z" fill="#00BF63"/>
<path d="M104.648 25.1113C103.229 25.1113 101.97 24.8493 100.871 24.3254C99.7727 23.7846 98.911 23.0326 98.2855 22.0693C97.6771 21.0891 97.373 19.9484 97.373 18.6472C97.373 17.3628 97.635 16.2136 98.1587 15.1997C98.6827 14.1688 99.4095 13.3576 100.339 12.7661C101.268 12.1746 102.35 11.8789 103.584 11.8789C104.919 11.8789 106.026 12.1662 106.904 12.7408C107.8 13.3154 108.468 14.0927 108.907 15.0729C109.346 16.0362 109.566 17.1178 109.566 18.3176C109.566 18.5035 109.558 18.6979 109.541 18.9006C109.541 19.1034 109.524 19.2809 109.49 19.433H99.8571C99.9419 20.2273 100.204 20.9033 100.643 21.4609C101.082 22.0017 101.64 22.4158 102.316 22.7031C103.009 22.9734 103.77 23.1086 104.598 23.1086H107.969V25.1113H104.648ZM99.8319 17.7853H107.209C107.209 17.4642 107.175 17.1262 107.107 16.7713C107.04 16.3995 106.921 16.0446 106.752 15.7067C106.583 15.3517 106.355 15.0391 106.068 14.7687C105.798 14.4814 105.451 14.2533 105.028 14.0843C104.623 13.9153 104.141 13.8308 103.584 13.8308C102.992 13.8308 102.468 13.9491 102.012 14.1857C101.573 14.4054 101.192 14.7096 100.871 15.0983C100.55 15.4701 100.305 15.8925 100.136 16.3657C99.9671 16.8389 99.8659 17.3121 99.8319 17.7853Z" fill="#00BF63"/>
<path d="M92.0386 25.1111V12.1829H94.3962V25.1111H92.0386ZM93.2298 10.1296C92.8074 10.1296 92.4358 9.97755 92.1146 9.67335C91.8106 9.35227 91.6582 8.98047 91.6582 8.55798C91.6582 8.1355 91.8106 7.77217 92.1146 7.46797C92.4358 7.14689 92.8074 6.98633 93.2298 6.98633C93.6526 6.98633 94.0158 7.14689 94.3202 7.46797C94.641 7.77217 94.8018 8.1355 94.8018 8.55798C94.8018 8.98047 94.641 9.35227 94.3202 9.67335C94.0158 9.97755 93.6526 10.1296 93.2298 10.1296Z" fill="#00BF63"/>
<path d="M82.3938 11.8789C83.3738 11.8789 84.2694 12.0394 85.0806 12.3605C85.8918 12.6647 86.5934 13.121 87.1846 13.7294C87.7762 14.3378 88.2326 15.0729 88.5535 15.9348C88.8915 16.7798 89.0606 17.7346 89.0606 18.7993C89.0606 20.1343 88.7818 21.3004 88.2242 22.2975C87.6834 23.2946 86.9398 24.0635 85.9934 24.6043C85.047 25.1451 83.9738 25.4155 82.7738 25.4155C82.115 25.4155 81.481 25.3056 80.8726 25.0859C80.2814 24.8662 79.749 24.562 79.2758 24.1733C78.8194 23.7677 78.4477 23.3114 78.1605 22.8045H78.1097V30.6881H75.7773V18.7232C75.7773 17.2698 76.0649 16.0362 76.6393 15.0222C77.2309 14.0082 78.0253 13.2308 79.0222 12.6901C80.0194 12.1493 81.143 11.8789 82.3938 11.8789ZM82.3938 13.8815C81.6162 13.8815 80.8982 14.0758 80.239 14.4645C79.597 14.8532 79.0814 15.4025 78.6926 16.1122C78.3209 16.822 78.135 17.6586 78.135 18.6218C78.135 19.602 78.3209 20.4554 78.6926 21.1821C79.0814 21.8919 79.597 22.4411 80.239 22.8298C80.8982 23.2185 81.6246 23.4128 82.419 23.4128C83.2302 23.4128 83.957 23.21 84.599 22.8045C85.2414 22.3989 85.7482 21.8412 86.1202 21.1314C86.5086 20.4216 86.703 19.5935 86.703 18.6472C86.703 17.667 86.5086 16.822 86.1202 16.1122C85.7314 15.4025 85.2074 14.8532 84.5482 14.4645C83.9062 14.0758 83.1878 13.8815 82.3938 13.8815Z" fill="#00BF63"/>
<path d="M64.8376 25.4155C63.5872 25.4155 62.5055 25.1197 61.5928 24.5282C60.6803 23.9198 59.9791 23.1002 59.4887 22.0693C58.9987 21.0385 58.7539 19.8977 58.7539 18.6472C58.7539 17.3797 59.0243 16.239 59.5651 15.225C60.1059 14.1941 60.8831 13.383 61.8971 12.7915C62.9111 12.1831 64.128 11.8789 65.5476 11.8789C66.9164 11.8789 68.0908 12.1746 69.0708 12.7661C70.0512 13.3576 70.8032 14.1603 71.3272 15.1743C71.868 16.1883 72.1384 17.3206 72.1384 18.5711V25.1113H69.7808V22.4749H69.73C69.4764 22.965 69.13 23.4382 68.6908 23.8945C68.2684 24.3339 67.736 24.6972 67.0936 24.9845C66.4516 25.2718 65.6996 25.4155 64.8376 25.4155ZM65.446 23.4128C66.2912 23.4128 67.0344 23.21 67.6768 22.8045C68.336 22.382 68.8428 21.8074 69.1976 21.0807C69.5696 20.3371 69.7552 19.5091 69.7552 18.5965C69.7552 17.7008 69.578 16.8981 69.2232 16.1883C68.8852 15.4785 68.3948 14.9208 67.7528 14.5152C67.1108 14.0927 66.3584 13.8815 65.4968 13.8815C64.584 13.8815 63.7984 14.0927 63.1392 14.5152C62.4971 14.9377 61.9984 15.5123 61.6435 16.239C61.3055 16.9488 61.1367 17.76 61.1367 18.6725C61.1367 19.5513 61.3055 20.354 61.6435 21.0807C61.9815 21.7905 62.4716 22.3566 63.1139 22.7791C63.756 23.2016 64.5336 23.4128 65.446 23.4128Z" fill="#00BF63"/>
<path d="M45.9191 25.1117V23.1092H52.1043C52.5099 23.1092 52.8564 23.0246 53.1436 22.8557C53.448 22.6698 53.676 22.4332 53.828 22.1459C53.9804 21.8586 54.0564 21.5544 54.0564 21.2333C54.0564 20.9291 53.9888 20.6503 53.8536 20.3968C53.7184 20.1264 53.5071 19.9151 53.2199 19.7631C52.9495 19.5941 52.6199 19.5095 52.2311 19.5095H49.6203C48.7919 19.5095 48.0655 19.3743 47.4399 19.104C46.8319 18.8167 46.3499 18.4026 45.9951 17.8618C45.6571 17.3211 45.4883 16.662 45.4883 15.8846C45.4883 15.2255 45.6487 14.6171 45.9699 14.0594C46.2911 13.5018 46.7387 13.0539 47.3135 12.7159C47.8879 12.361 48.5471 12.1836 49.2907 12.1836H55.2476V14.1862H49.5187C48.9947 14.1862 48.5807 14.3467 48.2767 14.6678C47.9723 14.9889 47.8203 15.3691 47.8203 15.8085C47.8203 16.231 47.9723 16.6028 48.2767 16.9239C48.5979 17.2281 49.0455 17.3802 49.6203 17.3802H52.1043C53.0339 17.3802 53.8112 17.5323 54.4364 17.8365C55.0788 18.1238 55.5604 18.5463 55.8816 19.104C56.2196 19.6617 56.3884 20.3461 56.3884 21.1573C56.3884 21.8502 56.2196 22.5008 55.8816 23.1092C55.5436 23.7007 55.0704 24.1823 54.462 24.5541C53.8704 24.9259 53.1775 25.1117 52.3832 25.1117H45.9191Z" fill="#00BF63"/>
<path d="M36.3109 25.4155C34.9928 25.4155 33.8268 25.1197 32.8128 24.5282C31.7988 23.9198 30.996 23.1086 30.4048 22.0947C29.8132 21.0638 29.5176 19.9147 29.5176 18.6472C29.5176 17.3797 29.8132 16.239 30.4048 15.225C30.996 14.1941 31.7988 13.383 32.8128 12.7915C33.8268 12.1831 34.9928 11.8789 36.3109 11.8789C37.6293 11.8789 38.7953 12.1831 39.8093 12.7915C40.8401 13.383 41.6429 14.1857 42.2173 15.1997C42.8089 16.2136 43.1045 17.3628 43.1045 18.6472C43.1045 19.9147 42.8089 21.0638 42.2173 22.0947C41.6429 23.1086 40.8401 23.9198 39.8093 24.5282C38.7953 25.1197 37.6293 25.4155 36.3109 25.4155ZM36.3109 23.4128C37.2068 23.4128 37.9841 23.2016 38.6433 22.7791C39.3021 22.3566 39.8177 21.7905 40.1897 21.0807C40.5613 20.354 40.7473 19.5429 40.7473 18.6472C40.7473 17.7515 40.5613 16.9488 40.1897 16.239C39.8177 15.5123 39.3021 14.9377 38.6433 14.5152C37.9841 14.0927 37.2068 13.8815 36.3109 13.8815C35.4324 13.8815 34.6548 14.0927 33.9788 14.5152C33.3196 14.9377 32.8044 15.5123 32.4324 16.239C32.0608 16.9488 31.8748 17.7515 31.8748 18.6472C31.8748 19.5429 32.0608 20.354 32.4324 21.0807C32.8044 21.7905 33.3196 22.3566 33.9788 22.7791C34.6548 23.2016 35.4324 23.4128 36.3109 23.4128Z" fill="#00BF63"/>
<path d="M22.3357 25.1113C20.9161 25.1113 19.6572 24.8493 18.5588 24.3254C17.4603 23.7846 16.5984 23.0326 15.9731 22.0693C15.3647 21.0891 15.0605 19.9484 15.0605 18.6472C15.0605 17.3628 15.3225 16.2136 15.8464 15.1997C16.3703 14.1688 17.097 13.3576 18.0264 12.7661C18.9559 12.1746 20.0377 11.8789 21.2713 11.8789C22.6061 11.8789 23.7133 12.1662 24.5917 12.7408C25.4877 13.3154 26.1549 14.0927 26.5945 15.0729C27.0337 16.0362 27.2537 17.1178 27.2537 18.3176C27.2537 18.5035 27.2453 18.6979 27.2281 18.9006C27.2281 19.1034 27.2113 19.2809 27.1777 19.433H17.5448C17.6293 20.2273 17.8912 20.9033 18.3306 21.4609C18.77 22.0017 19.3277 22.4158 20.0037 22.7031C20.6965 22.9734 21.4569 23.1086 22.2853 23.1086H25.6565V25.1113H22.3357ZM17.5194 17.7853H24.8961C24.8961 17.4642 24.8621 17.1262 24.7945 16.7713C24.7269 16.3995 24.6089 16.0446 24.4397 15.7067C24.2709 15.3517 24.0425 15.0391 23.7553 14.7687C23.4849 14.4814 23.1385 14.2533 22.7161 14.0843C22.3105 13.9153 21.8289 13.8308 21.2713 13.8308C20.6797 13.8308 20.1557 13.9491 19.6995 14.1857C19.2601 14.4054 18.8799 14.7096 18.5588 15.0983C18.2377 15.4701 17.9926 15.8925 17.8236 16.3657C17.6546 16.8389 17.5532 17.3121 17.5194 17.7853Z" fill="#00BF63"/>
<path d="M0 25.1113V17.6332C0 16.484 0.253484 15.4785 0.760486 14.6166C1.28437 13.7547 2.00262 13.0872 2.91518 12.614C3.82775 12.1239 4.86708 11.8789 6.03313 11.8789C7.2161 11.8789 8.25543 12.1239 9.15112 12.614C10.0637 13.0872 10.7735 13.7547 11.2805 14.6166C11.8043 15.4785 12.0663 16.484 12.0663 17.6332V25.1113H9.73416V17.6586C9.73416 16.8812 9.55672 16.2136 9.2018 15.6559C8.86384 15.0814 8.40755 14.642 7.83295 14.3378C7.27526 14.0336 6.67534 13.8815 6.03313 13.8815C5.39097 13.8815 4.78256 14.0336 4.208 14.3378C3.65031 14.642 3.19403 15.0814 2.83914 15.6559C2.50114 16.2136 2.33214 16.8812 2.33214 17.6586V25.1113H0Z" fill="#00BF63"/>
</g>
<defs>
<clipPath id="clip0_1741_11348">
<rect width="131" height="38.7465" fill="white"/>
</clipPath>
</defs>
</svg>
